<?xml version="1.0" encoding="UTF-8"?>
<svg version="1.1" xmlns="http://www.w3.org/2000/svg" width="500" height="500">
<path d="M0 0 C8.89219092 0.00378284 17.78437071 0.00239228 26.67656124 -0.00180173 C59.52597907 -0.01667579 92.37494622 0.00725104 125.22416866 0.12856936 C126.16289601 0.13184804 127.10162336 0.13512671 128.06879699 0.13850474 C138.4817672 0.17524671 148.89403041 0.23229926 159.30646884 0.34564471 C161.93423115 0.37396409 164.56148914 0.39274224 167.18943012 0.40639758 C184.1375582 0.50434801 200.33601045 0.99143256 215.22416866 10.12856936 C215.91768428 10.54622561 216.61119991 10.96388186 217.32573116 11.39419436 C229.10536351 19.30792421 235.19451848 32.73635776 238.22416866 46.12856936 C239.10715917 50.63709328 239.34857268 54.89654586 239.34721649 59.48862147 C239.34837033 60.21141498 239.34952418 60.93420849 239.35071298 61.67890483 C239.35336044 64.10155188 239.34887291 66.52413251 239.34442317 68.94677615 C239.34485926 70.70087 239.34573485 72.45496378 239.34701234 74.20905721 C239.34924999 79.02977673 239.34524596 83.85047405 239.34023428 88.67119074 C239.33591953 93.86949785 239.33737693 99.06780369 239.33813655 104.26611209 C239.33866114 113.27275141 239.33552117 122.27938349 239.32989872 131.28602099 C239.32177485 144.30813953 239.31916758 157.33025455 239.31791072 170.35237534 C239.3157216 191.47943549 239.30906529 212.60649178 239.29960811 233.73354983 C239.29043039 254.25763818 239.28335131 274.78172548 239.2791003 295.30581546 C239.27870621 297.20318013 239.27870621 297.20318013 239.27830417 299.13887541 C239.27699914 305.48449781 239.27573543 311.83012021 239.27449226 318.17574263 C239.264124 370.82668768 239.24623443 423.47762802 239.22416866 476.12856936 C214.47416866 476.12856936 189.72416866 476.12856936 164.22416866 476.12856936 C164.22416866 343.79856936 164.22416866 211.46856936 164.22416866 75.12856936 C151.68416866 75.45856936 139.14416866 75.78856936 126.22416866 76.12856936 C118.01086621 76.20901385 109.80319234 76.26697207 101.5903796 76.2579639 C99.3999191 76.25932804 97.20945884 76.2611135 95.01899898 76.26327395 C89.20402199 76.26773157 83.38906327 76.2661074 77.57408607 76.26289487 C71.38634059 76.26030547 65.19859635 76.26272698 59.01085079 76.26428103 C48.6197144 76.26608564 38.22858519 76.26374357 27.83744991 76.25894046 C15.97362036 76.25351852 4.10980807 76.25525244 -7.75402105 76.26076686 C-18.08244871 76.26536823 -28.4108713 76.2659144 -38.73929965 76.26332819 C-44.84478469 76.2618011 -50.95026174 76.26146914 -57.0557462 76.26486468 C-89.30783444 76.28042531 -121.53282758 75.90279727 -153.77583134 75.12856936 C-153.77545162 75.97880945 -153.7750719 76.82904953 -153.77468067 77.70505446 C-153.75232673 128.04162739 -153.73515701 178.3781998 -153.72476601 228.71477669 C-153.72351523 234.75204027 -153.72222092 240.78930384 -153.7208997 246.82656741 C-153.72063739 248.02853224 -153.72037508 249.23049707 -153.72010482 250.46888507 C-153.71574761 269.9583218 -153.70785979 289.4477556 -153.69867855 308.93719058 C-153.68934342 328.9192045 -153.68377603 348.90121688 -153.68174285 368.88323289 C-153.68036733 381.22383225 -153.67601517 393.56442332 -153.66791487 405.90502013 C-153.66264915 414.35512237 -153.66102665 422.80522029 -153.66232996 431.25532406 C-153.66297362 436.13837116 -153.66195277 441.02140372 -153.65662587 445.90444827 C-153.6517928 450.36711159 -153.65149207 454.82975046 -153.65493245 459.29241485 C-153.65535823 460.91422591 -153.65406172 462.53603844 -153.65094816 464.15784656 C-153.64698561 466.34770793 -153.64906704 468.53747884 -153.65278351 470.72733855 C-153.65240379 471.94813941 -153.65202407 473.16894028 -153.65163285 474.4267351 C-153.77583134 477.12856936 -153.77583134 477.12856936 -154.77583134 478.12856936 C-157.07636969 478.22300272 -159.37985307 478.24599065 -161.68232548 478.24209476 C-162.40423573 478.24224078 -163.12614598 478.24238681 -163.86993229 478.24253726 C-166.26698082 478.24183805 -168.66395257 478.23404532 -171.06098759 478.22622561 C-172.71865623 478.22436146 -174.37632541 478.22293755 -176.03399479 478.22193789 C-180.40537348 478.21811249 -184.77671915 478.20828202 -189.14808476 478.19723392 C-193.60537595 478.18702028 -198.06267246 478.18244038 -202.51997197 478.17739749 C-211.27194027 478.16665976 -220.02388171 478.14958308 -228.77583134 478.12856936 C-228.86744518 424.02068126 -228.93789969 369.91280101 -228.98009266 315.80485055 C-228.98509531 309.41267532 -228.99027262 303.02050023 -228.9955579 296.62832522 C-228.99660715 295.35579199 -228.99765639 294.08325876 -228.99873742 292.77216392 C-229.01612879 272.18450472 -229.0476595 251.59689033 -229.08444253 231.00925768 C-229.12188723 209.87455646 -229.14407466 188.73987866 -229.15218532 167.60514563 C-229.15766576 154.57050721 -229.1749571 141.53599547 -229.20749721 128.50139605 C-229.22868865 119.55544736 -229.23502091 110.60956388 -229.22983685 101.66359193 C-229.22728229 96.50709558 -229.23111741 91.35082014 -229.25265324 86.19436336 C-229.27226799 81.46305944 -229.27300559 76.73212282 -229.25942692 72.0008012 C-229.2577513 70.29929123 -229.26269828 68.59775736 -229.27536407 66.89629371 C-229.41024125 47.6402322 -226.15924028 29.97605389 -212.45551884 15.48794436 C-201.5075687 5.84864133 -187.54217824 1.15164881 -173.03784001 0.92523074 C-171.90369097 0.90568961 -170.76954194 0.88614848 -169.60102475 0.8660152 C-167.73595367 0.84153371 -167.73595367 0.84153371 -165.83320439 0.81655765 C-164.48016417 0.79607963 -163.12712737 0.77537493 -161.77409375 0.75446582 C-158.01778211 0.69839503 -154.26140789 0.64982518 -150.50496328 0.6036036 C-148.07405122 0.57356055 -145.64316068 0.54208099 -143.21226895 0.51043963 C-95.47739225 -0.1006875 -47.73785876 -0.02266934 0 0 Z " fill="#22AF8F" transform="translate(246.77583134174347,8.87143063545227)"/>
<path d="M0 0 C22.11 0 44.22 0 67 0 C67.08827909 37.69109845 67.16209824 75.38209893 67.20426132 113.07327127 C67.20926379 117.52899093 67.21444112 121.98471036 67.21972656 126.44042969 C67.2207758 127.32743592 67.22182505 128.21444216 67.22290608 129.12832737 C67.24028346 143.46677478 67.27180636 157.80515765 67.30861118 172.14356685 C67.346095 186.86996169 67.36825154 201.59632286 67.37635398 216.32276344 C67.38182636 225.40051448 67.39907336 234.47808307 67.43166587 243.55577791 C67.45290575 249.79139719 67.45917875 256.02692296 67.45400551 262.26257575 C67.45145836 265.85345531 67.45519913 269.44401738 67.4768219 273.03483963 C67.70358301 312.72093467 67.70358301 312.72093467 53.96875 328.3046875 C40.23141359 341.49452137 22.60979273 343.48858024 4.43579102 343.34057617 C2.94591286 343.33972716 1.45603345 343.34021038 -0.03384399 343.34190369 C-4.02674385 343.34275437 -8.01936597 343.32528143 -12.01220202 343.30418181 C-16.20416986 343.28525796 -20.39614606 343.28365233 -24.58815002 343.28010559 C-32.50317969 343.27083079 -40.41808307 343.24627975 -48.33305746 343.21605712 C-59.04488673 343.17605446 -69.75675124 343.16002129 -80.46863651 343.14255047 C-97.31251869 343.11445461 -114.15613454 343.05465501 -131 343 C-131 320.89 -131 298.78 -131 276 C-87.77 276 -44.54 276 0 276 C0 184.92 0 93.84 0 0 Z " fill="#205C3A" transform="translate(292,140)"/>
<path d="M0 0 C21.78 0 43.56 0 66 0 C66 74.91 66 149.82 66 227 C44.22 227 22.44 227 0 227 C0 152.09 0 77.18 0 0 Z " fill="#205C3B" transform="translate(162,140)"/>
<path d="M0 0 C21.12 0 42.24 0 64 0 C64 11.22 64 22.44 64 34 C42.88 34 21.76 34 0 34 C0 22.78 0 11.56 0 0 Z " fill="#24AC8D" transform="translate(229,416)"/>
<path d="M0 0 C0 5.95741847 -2.32407361 9.51996471 -6 14 C-6.71162443 15.64797236 -7.39031953 17.31165408 -8 19 C-8.33 19.33 -8.66 19.66 -9 20 C-9.07244053 22.01964199 -9.08377188 24.04167124 -9.0625 26.0625 C-9.05347656 27.16722656 -9.04445313 28.27195312 -9.03515625 29.41015625 C-9.02355469 30.26480469 -9.01195312 31.11945312 -9 32 C-9.66 32 -10.32 32 -11 32 C-11.78443835 36.15433501 -12.12520562 40.07366312 -12.12584114 44.29896164 C-12.12844889 45.55151237 -12.13105664 46.80406311 -12.13374341 48.09456992 C-12.13158141 49.47700753 -12.12932476 50.859445 -12.12698364 52.24188232 C-12.12813625 53.71697854 -12.12972471 55.19207448 -12.13171089 56.66716981 C-12.13588719 60.71866523 -12.13382092 64.77013711 -12.13072467 68.82163262 C-12.12846301 73.1947141 -12.13195461 77.56779152 -12.13470459 81.94087219 C-12.13915794 90.51941517 -12.13818632 99.0979494 -12.13529195 107.67649272 C-12.13302976 114.67391915 -12.13272896 121.67134314 -12.13381577 128.66876984 C-12.133969 129.6665276 -12.13412223 130.66428537 -12.13428011 131.69227822 C-12.13459988 133.72004745 -12.13492409 135.74781669 -12.1352527 137.77558592 C-12.13810787 156.81994389 -12.13482324 175.86429706 -12.12945233 194.90865424 C-12.1250144 211.14336959 -12.12573504 227.37807776 -12.13037109 243.61279297 C-12.13576869 262.52271939 -12.13780158 281.43264155 -12.13475883 300.34256864 C-12.13444035 302.37615792 -12.13412598 304.4097472 -12.13381577 306.44333649 C-12.13366149 307.4434312 -12.13350721 308.44352591 -12.13334826 309.47392653 C-12.13249624 316.41607772 -12.13393805 323.35822612 -12.13629532 330.30037689 C-12.18615143 381.63759753 -12.18615143 381.63759753 -11.55419922 432.96972656 C-11.52508119 434.52055726 -11.52508119 434.52055726 -11.49537492 436.10271788 C-11.4402709 438.91714667 -11.37798067 441.73128493 -11.31173706 444.54547119 C-11.29544148 445.34456358 -11.2791459 446.14365598 -11.26235652 446.96696329 C-11.15949329 450.82248387 -10.76275346 454.18623271 -10 458 C12.44 457.67 34.88 457.34 58 457 C58.95190094 453.19239622 59.12999045 450.25572169 59.1386652 446.35456467 C59.14150742 445.68473006 59.14434964 445.01489545 59.14727798 444.32476282 C59.15562942 442.07023561 59.15689354 439.81575976 59.15821838 437.56121826 C59.16278343 435.93259346 59.16778337 434.30396982 59.17318195 432.67534757 C59.18677901 428.19216745 59.19418596 423.70899492 59.20060861 419.22579956 C59.20860566 414.39418648 59.22230583 409.56258924 59.23532104 404.73098755 C59.25709365 396.35729213 59.27523528 387.98359511 59.29092598 379.60988617 C59.31361745 367.50283796 59.34176129 355.39580728 59.37124526 343.28877392 C59.41893003 323.64695077 59.46219182 304.00512045 59.50268555 284.36328125 C59.54203597 265.28059329 59.58346111 246.19791169 59.62768555 227.11523438 C59.63040982 225.93940901 59.63313409 224.76358365 59.63594092 223.55212721 C59.64962032 217.6534856 59.66334061 211.75484408 59.67708123 205.8562026 C59.79105991 156.90414835 59.89786619 107.9520803 60 59 C60.33 59 60.66 59 61 59 C61.02286407 109.94061306 61.04049705 160.88122561 61.05106533 211.82184279 C61.05231611 217.82906382 61.05361043 223.83628484 61.05493164 229.84350586 C61.05519395 231.03948946 61.05545626 232.23547306 61.05572652 233.46769858 C61.06008373 252.86013742 61.06797155 272.25257332 61.0771528 291.6450104 C61.08648793 311.52758323 61.09205531 331.41015451 61.09408849 351.29272944 C61.09546401 363.57190988 61.09981616 375.851082 61.10791647 388.13025988 C61.1131822 396.53831256 61.11480469 404.9463609 61.11350138 413.35441511 C61.11285773 418.21315904 61.11387855 423.07188836 61.11920547 427.93062973 C61.12403856 432.37108801 61.12433925 436.81152172 61.12089889 441.25198109 C61.12047311 442.86571683 61.12176961 444.47945405 61.12488318 446.09318685 C61.12884578 448.27215673 61.12676428 450.45103571 61.12304783 452.63000393 C61.12342755 453.84472927 61.12380727 455.0594546 61.1241985 456.3109898 C61 459 61 459 60 460 C57.69946165 460.09443335 55.39597827 460.11742128 53.09350586 460.11352539 C52.37159561 460.11367142 51.64968536 460.11381744 50.90589905 460.1139679 C48.50885053 460.11326869 46.11187877 460.10547595 43.71484375 460.09765625 C42.05717511 460.0957921 40.39950593 460.09436818 38.74183655 460.09336853 C34.37045786 460.08954312 29.99911219 460.07971265 25.62774658 460.06866455 C21.17045539 460.05845092 16.71315889 460.05387101 12.25585938 460.04882812 C3.50389107 460.0380904 -5.24805036 460.02101371 -14 460 C-14.09161384 405.89211189 -14.16206834 351.78423164 -14.20426132 297.67628119 C-14.20926397 291.28410595 -14.21444128 284.89193087 -14.21972656 278.49975586 C-14.2207758 277.22722263 -14.22182505 275.9546894 -14.22290608 274.64359456 C-14.24029744 254.05593535 -14.27182816 233.46832096 -14.30861118 212.88068832 C-14.34605589 191.7459871 -14.36824332 170.6113093 -14.37635398 149.47657627 C-14.38183442 136.44193785 -14.39912576 123.4074261 -14.43166587 110.37282669 C-14.45285731 101.426878 -14.45918956 92.48099452 -14.45400551 83.53502256 C-14.45145095 78.37852621 -14.45528607 73.22225077 -14.4768219 68.06579399 C-14.49643665 63.33449008 -14.49717424 58.60355346 -14.48359558 53.87223183 C-14.48191996 52.17072187 -14.48686694 50.46918799 -14.49953273 48.76772434 C-14.62286808 31.15945941 -12.23567893 13.64748804 0 0 Z " fill="#3F9C89" transform="translate(32,27)"/>
<path d="M0 0 C0.33 0 0.66 0 1 0 C1 139.59 1 279.18 1 423 C-23.75 423 -48.5 423 -74 423 C-74 291.33 -74 159.66 -74 24 C-73.67 24 -73.34 24 -73 24 C-72.67 155.01 -72.34 286.02 -72 421 C-49.23 421 -26.46 421 -3 421 C-3.495 419.515 -3.495 419.515 -4 418 C-3.34 417.67 -2.68 417.34 -2 417 C-2.00222061 416.35076065 -2.00444122 415.7015213 -2.00672913 415.03260803 C-2.02878002 408.30112252 -2.04390577 401.56964719 -2.05493164 394.83813477 C-2.05997363 392.32283105 -2.06680703 389.80753028 -2.07543945 387.29223633 C-2.08751094 383.68570225 -2.09322949 380.07920677 -2.09765625 376.47265625 C-2.10281754 375.34038101 -2.10797882 374.20810577 -2.11329651 373.04151917 C-2.11337204 372.00051559 -2.11344757 370.95951202 -2.11352539 369.88696289 C-2.115746 368.96540909 -2.11796661 368.04385529 -2.12025452 367.09437561 C-2 365 -2 365 -1 364 C-0.89725403 362.06625239 -0.86599138 360.12869896 -0.8613348 358.19222927 C-0.85586036 356.92228223 -0.85038591 355.65233519 -0.84474558 354.34390491 C-0.84366917 352.91623595 -0.84268451 351.48856691 -0.84178162 350.06089783 C-0.83722007 348.55860608 -0.83222066 347.05631562 -0.82681805 345.55402666 C-0.81318111 341.40611594 -0.8058026 337.25821345 -0.79939139 333.11028612 C-0.79141173 328.64467609 -0.77770564 324.17908335 -0.76467896 319.71348572 C-0.74288153 311.96998063 -0.72474904 304.22647383 -0.70907402 296.48295403 C-0.68640505 285.28698956 -0.65825816 274.09104419 -0.62875474 262.89509589 C-0.58104228 244.73239982 -0.53778804 226.56969596 -0.49731445 208.40698242 C-0.45797809 190.75886427 -0.41655635 173.11075305 -0.37231445 155.46264648 C-0.36959018 154.37564282 -0.36686591 153.28863915 -0.36405908 152.16869598 C-0.35037991 146.71576459 -0.33665958 141.26283331 -0.32291877 135.80990207 C-0.20889662 90.53994916 -0.1021 45.26998126 0 0 Z " fill="#3B9D88" transform="translate(485,62)"/>
<path d="M0 0 C0.33 0 0.66 0 1 0 C1 35.97 1 71.94 1 109 C1.99 109 2.98 109 4 109 C4 109.66 4 110.32 4 111 C3.34 111 2.68 111 2 111 C1.67 133.44 1.34 155.88 1 179 C0.67 179 0.34 179 0 179 C0 119.93 0 60.86 0 0 Z " fill="#27553F" transform="translate(162,184)"/>
<path d="M0 0 C9.9 0 19.8 0 30 0 C26.60102327 2.26598448 25.43680827 2.23742654 21.45703125 2.1953125 C19.84731445 2.18564453 19.84731445 2.18564453 18.20507812 2.17578125 C16.52575195 2.15064453 16.52575195 2.15064453 14.8125 2.125 C13.68134766 2.11597656 12.55019531 2.10695312 11.38476562 2.09765625 C8.58963172 2.07406862 5.79492155 2.041153 3 2 C1.69961916 5.90114251 1.82254692 9.62599521 1.79467773 13.6940918 C1.78477814 14.5821048 1.77487854 15.4701178 1.76467896 16.38504028 C1.73306711 19.32307256 1.70830771 22.26112101 1.68359375 25.19921875 C1.66302396 27.23517784 1.64202748 29.27113267 1.62062073 31.30708313 C1.56540271 36.66806585 1.5159922 42.02908709 1.46777344 47.39013672 C1.41755648 52.85973544 1.36187142 58.32927815 1.30664062 63.79882812 C1.19906233 74.53250425 1.09761659 85.26622898 1 96 C0.67 96 0.34 96 0 96 C0 64.32 0 32.64 0 0 Z " fill="#3F5046" transform="translate(292,140)"/>
<path d="M0 0 C0.74617584 0.00141495 1.49235168 0.0028299 2.26113892 0.00428772 C4.62465568 0.00984751 6.98807477 0.02239236 9.3515625 0.03515625 C10.96223821 0.04017645 12.57291541 0.04473845 14.18359375 0.04882812 C18.11462049 0.05980374 22.04557498 0.07704029 25.9765625 0.09765625 C22.28369231 2.43441402 19.02359009 2.37941228 14.71875 2.44140625 C13.66411057 2.46334045 13.66411057 2.46334045 12.58816528 2.48571777 C10.34268899 2.5320784 8.09729532 2.56630474 5.8515625 2.59765625 C-9.76294052 2.10543883 -9.76294052 2.10543883 -24.0234375 7.09765625 C-26.7109375 7.22265625 -26.7109375 7.22265625 -29.0234375 7.09765625 C-26.01478141 4.56925513 -23.44487693 3.4403761 -19.6484375 2.47265625 C-18.27558594 2.11300781 -18.27558594 2.11300781 -16.875 1.74609375 C-11.20077443 0.4557904 -5.81291635 -0.04209401 0 0 Z " fill="#3CA58C" transform="translate(76.0234375,9.90234375)"/>
<path d="M0 0 C11.67136192 0.28980808 22.2199059 4.28094446 31 12 C30.01 12.33 29.02 12.66 28 13 C28 12.34 28 11.68 28 11 C27.01 11 26.02 11 25 11 C25 10.34 25 9.68 25 9 C17.8614132 5.90661239 10.34911768 3.93612892 2.71484375 2.52734375 C2.14894531 2.35332031 1.58304687 2.17929688 1 2 C0.67 1.34 0.34 0.68 0 0 Z " fill="#399F89" transform="translate(436,11)"/>
<path d="M0 0 C0.66 0 1.32 0 2 0 C1.68080648 8.10751543 1.02283763 18.97716237 -5 25 C-5 23.35 -5 21.7 -5 20 C-4.34 20 -3.68 20 -3 20 C-3.01160156 19.40832031 -3.02320313 18.81664062 -3.03515625 18.20703125 C-3.08322386 13.99768215 -3.06006883 10.1077667 -2 6 C-1.34 6 -0.68 6 0 6 C0 4.02 0 2.04 0 0 Z " fill="#244F37" transform="translate(357,433)"/>
<path d="M0 0 C2.94995547 3.45856848 5.22675738 6.80021485 7 11 C6.67 11.66 6.34 12.32 6 13 C5.67 11.68 5.34 10.36 5 9 C4.34 9 3.68 9 3 9 C3 8.01 3 7.02 3 6 C1.35 6.33 -0.3 6.66 -2 7 C-1.67 6.401875 -1.34 5.80375 -1 5.1875 C0.20787988 2.94613529 0.20787988 2.94613529 0 0 Z " fill="#30A387" transform="translate(474,31)"/>
<path d="M0 0 C1.98 0.495 1.98 0.495 4 1 C4 1.66 4 2.32 4 3 C5.65 3 7.3 3 9 3 C9.33 3.99 9.66 4.98 10 6 C8.35333797 5.8864371 6.70763918 5.75882619 5.0625 5.625 C3.68771484 5.52058594 3.68771484 5.52058594 2.28515625 5.4140625 C1.15400391 5.20910156 1.15400391 5.20910156 0 5 C-0.33 4.34 -0.66 3.68 -1 3 C-0.67 2.01 -0.34 1.02 0 0 Z " fill="#2AA98B" transform="translate(460,21)"/>
<path d="M0 0 C0.33 0.66 0.66 1.32 1 2 C0.34 2 -0.32 2 -1 2 C-1 2.66 -1 3.32 -1 4 C-2.65 4.66 -4.3 5.32 -6 6 C-5.67 7.32 -5.34 8.64 -5 10 C-5.66 10 -6.32 10 -7 10 C-7 9.34 -7 8.68 -7 8 C-8.65 8.66 -10.3 9.32 -12 10 C-8.74897716 5.25892502 -4.89367634 2.79129597 0 0 Z " fill="#39A08A" transform="translate(45,17)"/>
<path d="M0 0 C0.33 0.66 0.66 1.32 1 2 C5.95 2 10.9 2 16 2 C15.34 2.66 14.68 3.32 14 4 C12.68 4 11.36 4 10 4 C9.34 4.66 8.68 5.32 8 6 C7.34 5.34 6.68 4.68 6 4 C5.01 4.66 4.02 5.32 3 6 C3 5.01 3 4.02 3 3 C2.01 3 1.02 3 0 3 C0 2.01 0 1.02 0 0 Z " fill="#26A789" transform="translate(143,9)"/>
<path d="M0 0 C0 0.66 0 1.32 0 2 C-0.61488281 2.12117187 -1.22976562 2.24234375 -1.86328125 2.3671875 C-2.67152344 2.53476563 -3.47976562 2.70234375 -4.3125 2.875 C-5.11300781 3.03742187 -5.91351563 3.19984375 -6.73828125 3.3671875 C-9.25301118 3.94478999 -9.25301118 3.94478999 -12 6 C-14.6875 6.125 -14.6875 6.125 -17 6 C-13.92941119 3.40236918 -11.25841292 2.30167122 -7.375 1.3125 C-6.41335937 1.06113281 -5.45171875 0.80976563 -4.4609375 0.55078125 C-2 0 -2 0 0 0 Z " fill="#3DA08A" transform="translate(64,11)"/>
<path d="M0 0 C1.65 0.33 3.3 0.66 5 1 C5 1.66 5 2.32 5 3 C1.535 4.485 1.535 4.485 -2 6 C-1.34 4.02 -0.68 2.04 0 0 Z " fill="#26543D" transform="translate(330,473)"/>
<path d="" fill="#FFFFFF" transform="translate(0,0)"/>
<path d="" fill="#FFFFFF" transform="translate(0,0)"/>
<path d="" fill="#FFFFFF" transform="translate(0,0)"/>
<path d="" fill="#FFFFFF" transform="translate(0,0)"/>
<path d="" fill="#FFFFFF" transform="translate(0,0)"/>
<path d="" fill="#FFFFFF" transform="translate(0,0)"/>
<path d="" fill="#FFFFFF" transform="translate(0,0)"/>
<path d="" fill="#FFFFFF" transform="translate(0,0)"/>
<path d="" fill="#FFFFFF" transform="translate(0,0)"/>
<path d="" fill="#FFFFFF" transform="translate(0,0)"/>
<path d="" fill="#FFFFFF" transform="translate(0,0)"/>
<path d="" fill="#FFFFFF" transform="translate(0,0)"/>
<path d="" fill="#FFFFFF" transform="translate(0,0)"/>
<path d="" fill="#FFFFFF" transform="translate(0,0)"/>
<path d="" fill="#FFFFFF" transform="translate(0,0)"/>
<path d="" fill="#FFFFFF" transform="translate(0,0)"/>
<path d="" fill="#FFFFFF" transform="translate(0,0)"/>
<path d="" fill="#FFFFFF" transform="translate(0,0)"/>
<path d="" fill="#FFFFFF" transform="translate(0,0)"/>
<path d="" fill="#FFFFFF" transform="translate(0,0)"/>
<path d="" fill="#FFFFFF" transform="translate(0,0)"/>
<path d="" fill="#FFFFFF" transform="translate(0,0)"/>
<path d="" fill="#FFFFFF" transform="translate(0,0)"/>
<path d="" fill="#FFFFFF" transform="translate(0,0)"/>
<path d="" fill="#FFFFFF" transform="translate(0,0)"/>
<path d="" fill="#FFFFFF" transform="translate(0,0)"/>
<path d="" fill="#FFFFFF" transform="translate(0,0)"/>
<path d="" fill="#FFFFFF" transform="translate(0,0)"/>
<path d="" fill="#FFFFFF" transform="translate(0,0)"/>
<path d="" fill="#FFFFFF" transform="translate(0,0)"/>
<path d="" fill="#FFFFFF" transform="translate(0,0)"/>
<path d="" fill="#FFFFFF" transform="translate(0,0)"/>
<path d="" fill="#FFFFFF" transform="translate(0,0)"/>
<path d="" fill="#FFFFFF" transform="translate(0,0)"/>
<path d="" fill="#FFFFFF" transform="translate(0,0)"/>
<path d="" fill="#FFFFFF" transform="translate(0,0)"/>
</svg>
